<svg xmlns="http://www.w3.org/2000/svg" xmlns:xlink="http://www.w3.org/1999/xlink" width="512" height="512" id="medical"><defs><path id="a" d="M0 3.788v364.684h506.325V3.788H0z"></path><path id="c" d="M246.141.542H1.537v114.483h244.604V.542z"></path><path id="e" d="M0 461.412h506.326V3.102H0z"></path></defs><g fill="none" fill-rule="evenodd" transform="translate(0 25)"><path fill="#FEFEFE" d="M471.095 450.98H35.23c-13.72 0-24.845-11.179-24.845-24.972v-293.88c0-13.794 11.125-24.974 24.845-24.974h435.865c13.727 0 24.852 11.18 24.852 24.973v293.881c0 13.793-11.125 24.973-24.852 24.973Z"></path><g transform="translate(0 92.94)"><mask id="b" fill="#fff"><use xlink:href="#a"></use></mask><path fill="#2E2E30" d="M35.23 24.645c-7.978 0-14.475 6.521-14.475 14.544V333.07c0 8.023 6.497 14.545 14.475 14.545h435.864c7.977 0 14.474-6.522 14.474-14.545V39.19c0-8.024-6.497-14.545-14.474-14.545H35.23Zm435.864 343.827H35.23c-19.429 0-35.231-15.88-35.231-35.402V39.19c0-19.523 15.802-35.402 35.23-35.402h435.865c19.428 0 35.231 15.88 35.231 35.401V333.07c0 19.522-15.803 35.402-35.231 35.402Z" mask="url(#b)"></path></g><path fill="#E42E44" d="M331.539 252.786h-44.025v-44.237h-70.545v44.237h-44.025v70.879h44.025v44.245h70.545v-44.245h44.025z"></path><path fill="#2E2E30" d="M227.352 357.48h49.781v-33.809c0-5.756 4.65-10.428 10.379-10.428h33.653v-50.029h-33.653c-5.73 0-10.379-4.665-10.379-10.428V218.97h-49.781v33.816c0 5.763-4.65 10.428-10.379 10.428h-33.647v50.029h33.647c5.729 0 10.379 4.672 10.379 10.428v33.81Zm60.16 20.857h-70.539c-5.729 0-10.378-4.672-10.378-10.428v-33.81h-33.647c-5.729 0-10.378-4.671-10.378-10.428v-70.885c0-5.757 4.65-10.429 10.378-10.429h33.647v-33.809c0-5.763 4.65-10.428 10.378-10.428h70.539c5.728 0 10.378 4.665 10.378 10.428v33.81h33.654c5.728 0 10.378 4.671 10.378 10.428v70.885c0 5.757-4.65 10.429-10.378 10.429H297.89v33.809c0 5.756-4.65 10.428-10.378 10.428Z"></path><path fill="#3D3D3D" d="M143.372 38.559v68.598h43.201V53.36h137.445v53.797h43.208V38.56c0-13.821-11.153-25.029-24.908-25.029H168.28c-13.755 0-24.908 11.208-24.908 25.029"></path><g transform="translate(131.46 2.56)"><mask id="d" fill="#fff"><use xlink:href="#c"></use></mask><path fill="#2E2E30" d="M202.94 94.168h22.444v-58.17c0-8.05-6.51-14.6-14.522-14.6H36.816c-8.012 0-14.523 6.55-14.523 14.6v58.17h22.445V50.8c0-5.757 4.65-10.429 10.379-10.429H192.56c5.729 0 10.379 4.672 10.379 10.429v43.368Zm32.823 20.857H192.56c-5.729 0-10.378-4.665-10.378-10.428V61.228H65.495v43.369c0 5.763-4.65 10.428-10.378 10.428H11.915c-5.729 0-10.378-4.665-10.378-10.428V35.998c0-19.55 15.83-35.456 35.28-35.456h174.045c19.449 0 35.28 15.906 35.28 35.456v68.599c0 5.763-4.65 10.428-10.38 10.428Z" mask="url(#d)"></path></g><mask id="f" fill="#fff"><use xlink:href="#e"></use></mask><path fill="#FEFEFE" d="M52.051 106.879h58.811V70.887H52.051z" mask="url(#f)"></path><path fill="#2E2E30" d="M62.43 96.45h38.053V81.316H62.43v15.136Zm48.432 20.858H52.05c-5.729 0-10.378-4.665-10.378-10.429V70.887c0-5.757 4.65-10.428 10.378-10.428h58.81c5.737 0 10.38 4.671 10.38 10.428v35.992c0 5.764-4.643 10.429-10.38 10.429Z" mask="url(#f)"></path><path fill="#FEFEFE" d="M398.862 106.879h58.811V70.887h-58.811z" mask="url(#f)"></path><path fill="#2E2E30" d="M409.24 96.45h38.054V81.316H409.24v15.136Zm48.433 20.858h-58.811c-5.729 0-10.379-4.665-10.379-10.429V70.887c0-5.757 4.65-10.428 10.379-10.428h58.81c5.736 0 10.379 4.671 10.379 10.428v35.992c0 5.764-4.643 10.429-10.378 10.429Z" mask="url(#f)"></path><path fill="#040605" d="M471.095 107.156h-13.402c.705 10.769 19.726 343.826-314.32 343.826h327.722c13.727 0 24.852-11.18 24.852-24.973V132.13c0-13.794-11.125-24.973-24.852-24.973" mask="url(#f)" opacity=".15"></path></g></svg>